<?xml version="1.0" standalone="no"?><svg xmlns="http://www.w3.org/2000/svg" viewBox="0 0 1440 320"><path fill="#0099ff" fill-opacity="1" d="M0,0L30,16C60,32,120,64,180,117.3C240,171,300,245,360,229.3C420,213,480,107,540,80C600,53,660,107,720,122.7C780,139,840,117,900,90.7C960,64,1020,32,1080,69.3C1140,107,1200,213,1260,256C1320,299,1380,277,1410,266.7L1440,256L1440,0L1410,0C1380,0,1320,0,1260,0C1200,0,1140,0,1080,0C1020,0,960,0,900,0C840,0,780,0,720,0C660,0,600,0,540,0C480,0,420,0,360,0C300,0,240,0,180,0C120,0,60,0,30,0L0,0Z"></path></svg>