<?xml version="1.0" standalone="no"?>
<svg xmlns:xlink="http://www.w3.org/1999/xlink" id="wave" style="transform:rotate(180deg); transition: 0.3s" viewBox="0 0 1440 490" version="1.1" xmlns="http://www.w3.org/2000/svg"><defs><linearGradient id="sw-gradient-0" x1="0" x2="0" y1="1" y2="0"><stop stop-color="rgba(128.601, 139.996, 127.693, 1)" offset="0%"/><stop stop-color="rgba(19.361, 227.996, 100.297, 1)" offset="100%"/></linearGradient></defs><path style="transform:translate(0, 0px); opacity:1" fill="url(#sw-gradient-0)" d="M0,392L40,400.2C80,408,160,425,240,383.8C320,343,400,245,480,228.7C560,212,640,278,720,269.5C800,261,880,180,960,171.5C1040,163,1120,229,1200,212.3C1280,196,1360,98,1440,73.5C1520,49,1600,98,1680,163.3C1760,229,1840,310,1920,359.3C2000,408,2080,425,2160,424.7C2240,425,2320,408,2400,400.2C2480,392,2560,392,2640,326.7C2720,261,2800,131,2880,98C2960,65,3040,131,3120,171.5C3200,212,3280,229,3360,220.5C3440,212,3520,180,3600,196C3680,212,3760,278,3840,269.5C3920,261,4000,180,4080,155.2C4160,131,4240,163,4320,187.8C4400,212,4480,229,4560,253.2C4640,278,4720,310,4800,343C4880,376,4960,408,5040,400.2C5120,392,5200,343,5280,318.5C5360,294,5440,294,5520,277.7C5600,261,5680,229,5720,212.3L5760,196L5760,490L5720,490C5680,490,5600,490,5520,490C5440,490,5360,490,5280,490C5200,490,5120,490,5040,490C4960,490,4880,490,4800,490C4720,490,4640,490,4560,490C4480,490,4400,490,4320,490C4240,490,4160,490,4080,490C4000,490,3920,490,3840,490C3760,490,3680,490,3600,490C3520,490,3440,490,3360,490C3280,490,3200,490,3120,490C3040,490,2960,490,2880,490C2800,490,2720,490,2640,490C2560,490,2480,490,2400,490C2320,490,2240,490,2160,490C2080,490,2000,490,1920,490C1840,490,1760,490,1680,490C1600,490,1520,490,1440,490C1360,490,1280,490,1200,490C1120,490,1040,490,960,490C880,490,800,490,720,490C640,490,560,490,480,490C400,490,320,490,240,490C160,490,80,490,40,490L0,490Z"/></svg>