<?xml version="1.0" standalone="no"?>
<svg xmlns:xlink="http://www.w3.org/1999/xlink" id="wave" style="transform:rotate(180deg); transition: 0.3s" viewBox="0 0 1440 490" version="1.1" xmlns="http://www.w3.org/2000/svg"><defs><linearGradient id="sw-gradient-0" x1="0" x2="0" y1="1" y2="0"><stop stop-color="rgba(128.601, 139.996, 127.693, 1)" offset="0%"/><stop stop-color="rgba(19.361, 227.996, 100.297, 1)" offset="100%"/></linearGradient></defs><path style="transform:translate(0, 0px); opacity:1" fill="url(#sw-gradient-0)" d="M0,49L40,73.5C80,98,160,147,240,196C320,245,400,294,480,318.5C560,343,640,343,720,318.5C800,294,880,245,960,204.2C1040,163,1120,131,1200,106.2C1280,82,1360,65,1440,89.8C1520,114,1600,180,1680,187.8C1760,196,1840,147,1920,130.7C2000,114,2080,131,2160,171.5C2240,212,2320,278,2400,294C2480,310,2560,278,2640,285.8C2720,294,2800,343,2880,334.8C2960,327,3040,261,3120,253.2C3200,245,3280,294,3360,269.5C3440,245,3520,147,3600,114.3C3680,82,3760,114,3840,179.7C3920,245,4000,343,4080,334.8C4160,327,4240,212,4320,155.2C4400,98,4480,98,4560,81.7C4640,65,4720,33,4800,40.8C4880,49,4960,98,5040,130.7C5120,163,5200,180,5280,220.5C5360,261,5440,327,5520,326.7C5600,327,5680,261,5720,228.7L5760,196L5760,490L5720,490C5680,490,5600,490,5520,490C5440,490,5360,490,5280,490C5200,490,5120,490,5040,490C4960,490,4880,490,4800,490C4720,490,4640,490,4560,490C4480,490,4400,490,4320,490C4240,490,4160,490,4080,490C4000,490,3920,490,3840,490C3760,490,3680,490,3600,490C3520,490,3440,490,3360,490C3280,490,3200,490,3120,490C3040,490,2960,490,2880,490C2800,490,2720,490,2640,490C2560,490,2480,490,2400,490C2320,490,2240,490,2160,490C2080,490,2000,490,1920,490C1840,490,1760,490,1680,490C1600,490,1520,490,1440,490C1360,490,1280,490,1200,490C1120,490,1040,490,960,490C880,490,800,490,720,490C640,490,560,490,480,490C400,490,320,490,240,490C160,490,80,490,40,490L0,490Z"/></svg>